<svg width="17" height="18" viewBox="0 0 17 18" fill="none" xmlns="http://www.w3.org/2000/svg">
<path d="M2.00261 15.3297C2.00261 16.0379 2.28393 16.7171 2.78467 17.2178C3.28542 17.7186 3.96458 17.9999 4.67275 17.9999H11.3481C12.0563 17.9999 12.7354 17.7186 13.2362 17.2178C13.7369 16.7171 14.0183 16.0379 14.0183 15.3297V4.64917H15.3533C15.5304 4.64917 15.7002 4.57884 15.8253 4.45365C15.9505 4.32847 16.0209 4.15868 16.0209 3.98163C16.0209 3.80459 15.9505 3.6348 15.8253 3.50961C15.7002 3.38443 15.5304 3.3141 15.3533 3.3141H11.9556C11.793 2.38583 11.3082 1.54464 10.5866 0.938472C9.86505 0.332308 8.95283 0 8.01043 0C7.06803 0 6.15581 0.332308 5.43422 0.938472C4.71264 1.54464 4.22791 2.38583 4.06529 3.3141H0.667536C0.490494 3.3141 0.320704 3.38443 0.195517 3.50961C0.0703296 3.6348 0 3.80459 0 3.98163C0 4.15868 0.0703296 4.32847 0.195517 4.45365C0.320704 4.57884 0.490494 4.64917 0.667536 4.64917H2.00261V15.3297ZM8.01043 1.31149C8.60205 1.31193 9.17677 1.50884 9.64435 1.87131C10.1119 2.23377 10.4459 2.74127 10.5938 3.3141H5.42707C5.57497 2.74127 5.90893 2.23377 6.37651 1.87131C6.84409 1.50884 7.41881 1.31193 8.01043 1.31149ZM4.67275 4.64917H12.6832V15.3297C12.6832 15.6838 12.5425 16.0234 12.2921 16.2738C12.0418 16.5242 11.7022 16.6648 11.3481 16.6648H4.67275C4.31867 16.6648 3.97909 16.5242 3.72871 16.2738C3.47834 16.0234 3.33768 15.6838 3.33768 15.3297V4.64917H4.67275ZM5.34029 13.9947V7.31931C5.34029 7.14227 5.41062 6.97248 5.5358 6.84729C5.66099 6.72211 5.83078 6.65178 6.00782 6.65178C6.18486 6.65178 6.35465 6.72211 6.47984 6.84729C6.60503 6.97248 6.67536 7.14227 6.67536 7.31931V13.9947C6.67536 14.1717 6.60503 14.3415 6.47984 14.4667C6.35465 14.5919 6.18486 14.6622 6.00782 14.6622C5.83078 14.6622 5.66099 14.5919 5.5358 14.4667C5.41062 14.3415 5.34029 14.1717 5.34029 13.9947ZM9.3455 13.9947V7.31931C9.3455 7.14227 9.41583 6.97248 9.54102 6.84729C9.66621 6.72211 9.836 6.65178 10.013 6.65178C10.1901 6.65178 10.3599 6.72211 10.4851 6.84729C10.6102 6.97248 10.6806 7.14227 10.6806 7.31931V13.9947C10.6806 14.1717 10.6102 14.3415 10.4851 14.4667C10.3599 14.5919 10.1901 14.6622 10.013 14.6622C9.836 14.6622 9.66621 14.5919 9.54102 14.4667C9.41583 14.3415 9.3455 14.1717 9.3455 13.9947Z" fill="black"/>
</svg>
