<svg width="17" height="17" viewBox="0 0 17 17" fill="none" xmlns="http://www.w3.org/2000/svg">
<path d="M16.0633 3.87601C16.0633 2.84803 15.6549 1.86215 14.928 1.13526C14.2012 0.408365 13.2153 0 12.1873 0C11.9818 0.000180934 11.7847 0.0819723 11.6395 0.227393L5.61357 6.25072C5.15637 6.70585 4.79397 7.24715 4.54736 7.84327C4.30075 8.4394 4.17482 9.07851 4.17686 9.72363V11.1112C4.17686 11.3168 4.25853 11.514 4.40391 11.6594C4.54929 11.8048 4.74646 11.8864 4.95206 11.8864H6.33967C6.98479 11.8885 7.62391 11.7626 8.22003 11.5159C8.81616 11.2693 9.35745 10.9069 9.81258 10.4497L15.8359 4.42382C15.9813 4.27858 16.0631 4.08154 16.0633 3.87601ZM8.71438 9.35153C8.40334 9.66454 8.03329 9.91272 7.62567 10.0817C7.21804 10.2507 6.78094 10.3372 6.33967 10.336H5.72726V9.72363C5.72615 9.28236 5.8126 8.84526 5.98159 8.43764C6.15058 8.03001 6.39877 7.65996 6.71177 7.34892L12.4922 1.56591L12.6266 1.59175C13.0823 1.6818 13.501 1.90526 13.8295 2.23376C14.158 2.56226 14.3815 2.98097 14.4716 3.43673L14.4974 3.5711L8.71438 9.35153Z" fill="black"/>
<path d="M3.91801 16.02H10.1196C11.1476 16.02 12.1335 15.6116 12.8604 14.8847C13.5873 14.1578 13.9956 13.1719 13.9956 12.1439V11.3687C13.9956 11.1631 13.914 10.966 13.7686 10.8206C13.6232 10.6752 13.426 10.5935 13.2204 10.5935C13.0148 10.5935 12.8177 10.6752 12.6723 10.8206C12.5269 10.966 12.4452 11.1631 12.4452 11.3687V12.1439C12.4452 12.7607 12.2002 13.3523 11.7641 13.7884C11.3279 14.2245 10.7364 14.4695 10.1196 14.4695H3.91801C3.30122 14.4695 2.70969 14.2245 2.27355 13.7884C1.83742 13.3523 1.5924 12.7607 1.5924 12.1439V5.94231C1.5924 5.32552 1.83742 4.734 2.27355 4.29786C2.70969 3.86172 3.30122 3.61671 3.91801 3.61671H4.69321C4.89881 3.61671 5.09598 3.53503 5.24136 3.38965C5.38674 3.24427 5.46841 3.0471 5.46841 2.8415C5.46841 2.63591 5.38674 2.43873 5.24136 2.29335C5.09598 2.14797 4.89881 2.0663 4.69321 2.0663H3.91801C2.89002 2.0663 1.90414 2.47466 1.17725 3.20156C0.450357 3.92845 0.0419922 4.91433 0.0419922 5.94231V12.1439C0.0419922 13.1719 0.450357 14.1578 1.17725 14.8847C1.90414 15.6116 2.89002 16.02 3.91801 16.02Z" fill="black"/>
</svg>
