<svg width="11" height="12" viewBox="0 0 11 12" fill="none" xmlns="http://www.w3.org/2000/svg">
<path d="M10.9032 0.436658C10.7619 0.161725 10.4794 0 10.1811 0H0.826099C0.527868 0 0.245333 0.161725 0.104066 0.436658C-0.0372013 0.71159 -0.0372014 1.03504 0.119762 1.2938C0.135459 1.30997 0.135459 1.32615 0.151155 1.34232L3.90259 6.43666V10.1078C3.90259 10.3342 4.01246 10.5445 4.20082 10.6577L6.13147 11.903C6.22565 11.9677 6.35122 12 6.46109 12C6.57097 12 6.66515 11.9677 6.75932 11.9191C6.96338 11.8059 7.08895 11.5957 7.08895 11.3531V6.43666L10.8404 1.34232C10.8561 1.32615 10.8561 1.30997 10.8718 1.2938C11.0287 1.03504 11.0444 0.71159 10.9032 0.436658Z" fill="black"/>
</svg>
