<svg width="19" height="21" viewBox="0 0 19 21" fill="none" xmlns="http://www.w3.org/2000/svg">
<path d="M16.5799 11.7961C17.0788 11.7961 17.487 11.3879 17.487 10.8891V2.72114C17.487 1.21998 16.267 0 14.7658 0H3.61371C2.11255 0 0.892578 1.21998 0.892578 2.72114V17.5559C0.892578 19.057 2.11255 20.277 3.61371 20.277H10.7748C11.2737 20.277 11.6819 19.8688 11.6819 19.3699C11.6819 18.8711 11.2737 18.4629 10.7748 18.4629H3.61371C3.11484 18.4629 2.70667 18.0547 2.70667 17.5559V2.72114C2.70667 2.22226 3.11484 1.81409 3.61371 1.81409H14.7658C15.2647 1.81409 15.6729 2.22226 15.6729 2.72114V10.8891C15.6729 11.3879 16.0765 11.7961 16.5799 11.7961Z" fill="#106FEC"/>
<path d="M12.0723 4.72583H6.30353C5.80465 4.72583 5.39648 5.134 5.39648 5.63287C5.39648 6.13175 5.80465 6.53992 6.30353 6.53992H12.0723C12.5712 6.53992 12.9794 6.13175 12.9794 5.63287C12.9794 5.134 12.5712 4.72583 12.0723 4.72583Z" fill="#106FEC"/>
<path d="M12.9794 9.8006C12.9794 9.30172 12.5712 8.89355 12.0723 8.89355H6.30353C5.80465 8.89355 5.39648 9.30172 5.39648 9.8006C5.39648 10.2995 5.80465 10.7076 6.30353 10.7076H12.0723C12.5712 10.7076 12.9794 10.304 12.9794 9.8006Z" fill="#106FEC"/>
<path d="M6.30353 13.0647C5.80465 13.0647 5.39648 13.4729 5.39648 13.9717C5.39648 14.4706 5.80465 14.8788 6.30353 14.8788H8.96117C9.46005 14.8788 9.86822 14.4706 9.86822 13.9717C9.86822 13.4729 9.46005 13.0647 8.96117 13.0647H6.30353Z" fill="#106FEC"/>
<path d="M14.8155 19.0638C15.3733 19.0638 15.8949 18.9232 16.353 18.6783L17.455 19.7804C17.6319 19.9573 17.8632 20.048 18.0945 20.048C18.3258 20.048 18.5571 19.9573 18.7339 19.7804C19.0877 19.4266 19.0877 18.8507 18.7339 18.4969L17.641 17.4039C17.9085 16.9323 18.0582 16.3926 18.0582 15.8121C18.0582 14.0206 16.6024 12.5603 14.8064 12.5603C13.0105 12.5603 11.5547 14.0206 11.5547 15.8121C11.5547 17.6035 13.0241 19.0638 14.8155 19.0638ZM14.8155 14.3789C15.6092 14.3789 16.2532 15.0229 16.2532 15.8166C16.2532 16.6103 15.6092 17.2543 14.8155 17.2543C14.0218 17.2543 13.3778 16.6103 13.3778 15.8166C13.3824 15.0229 14.0264 14.3789 14.8155 14.3789Z" fill="#106FEC"/>
</svg>
