<svg width="20" height="20" viewBox="0 0 20 20" fill="none" xmlns="http://www.w3.org/2000/svg">
<g id="Group">
<path id="Vector" fill-rule="evenodd" clip-rule="evenodd" d="M0 9.99993V17.8571C0 19.0406 0.959286 19.9999 2.14286 19.9999H17.8571C19.0407 19.9999 20 19.0406 20 17.8571C20 15.2528 20 9.99993 20 9.99993C20 9.60564 19.68 9.28564 19.2857 9.28564C18.8914 9.28564 18.5714 9.60564 18.5714 9.99993C18.5714 9.99993 18.5714 15.2528 18.5714 17.8571C18.5714 18.2514 18.2514 18.5714 17.8571 18.5714H2.14286C1.74857 18.5714 1.42857 18.2514 1.42857 17.8571V9.99993C1.42857 9.60564 1.10857 9.28564 0.714286 9.28564C0.32 9.28564 0 9.60564 0 9.99993Z" fill="white"/>
<path id="Vector_2" fill-rule="evenodd" clip-rule="evenodd" d="M20 7.14286V5.71429C20 4.53071 19.0407 3.57143 17.8571 3.57143H9.97214C9.755 3.57143 9.55 3.47286 9.41429 3.30357L7.415 0.804291C7.00857 0.295719 6.39286 0 5.74214 0H2.14286C0.959286 0 0 0.959286 0 2.14286C0 4.03714 0 7.14286 0 7.14286C0 7.53714 0.32 7.85714 0.714286 7.85714C1.10857 7.85714 1.42857 7.53714 1.42857 7.14286C1.42857 7.14286 1.42857 4.03714 1.42857 2.14286C1.42857 1.74857 1.74857 1.42857 2.14286 1.42857H5.74214C5.95929 1.42857 6.16429 1.52714 6.3 1.69643L8.29929 4.19571C8.70572 4.70428 9.32143 5 9.97214 5H17.8571C18.2514 5 18.5714 5.32 18.5714 5.71429V7.14286C18.5714 7.53714 18.8914 7.85714 19.2857 7.85714C19.68 7.85714 20 7.53714 20 7.14286Z" fill="white"/>
<g id="Group_2">
<path id="Vector_3" fill-rule="evenodd" clip-rule="evenodd" d="M3.57171 7.85704H7.85742C8.2517 7.85704 8.5717 7.53704 8.5717 7.14275C8.5717 6.74847 8.2517 6.42847 7.85742 6.42847H3.57171C3.17742 6.42847 2.85742 6.74847 2.85742 7.14275C2.85742 7.53704 3.17742 7.85704 3.57171 7.85704Z" fill="white"/>
</g>
<g id="Group_3">
<path id="Vector_4" fill-rule="evenodd" clip-rule="evenodd" d="M3.57171 13.5714H7.85742C8.2517 13.5714 8.5717 13.2514 8.5717 12.8571C8.5717 12.4628 8.2517 12.1428 7.85742 12.1428H3.57171C3.17742 12.1428 2.85742 12.4628 2.85742 12.8571C2.85742 13.2514 3.17742 13.5714 3.57171 13.5714Z" fill="white"/>
</g>
<g id="Group_4">
<path id="Vector_5" fill-rule="evenodd" clip-rule="evenodd" d="M3.57171 10.7142H16.4289C16.8231 10.7142 17.1431 10.3942 17.1431 9.99993C17.1431 9.60564 16.8231 9.28564 16.4289 9.28564H3.57171C3.17742 9.28564 2.85742 9.60564 2.85742 9.99993C2.85742 10.3942 3.17742 10.7142 3.57171 10.7142Z" fill="white"/>
</g>
</g>
</svg>
