<svg width="8" height="11" viewBox="0 0 8 11" fill="none" xmlns="http://www.w3.org/2000/svg">
<g id="Vector">
<path d="M7.49965 4.50025H0.499883C0.226415 4.50025 0 4.27384 0 4.00038C0 3.86761 0.0545073 3.74276 0.148614 3.64912L3.64873 0.149077C3.74237 0.054972 3.86723 0 4 0C4.13277 0 4.25763 0.0545062 4.35127 0.148611L7.85185 3.64865C7.94549 3.74229 8 3.86714 8 3.99992C8 4.27338 7.77358 4.50025 7.49965 4.50025ZM7.85185 7.35181L4.35127 10.8519C4.25763 10.9455 4.13277 11 4 11C3.86723 11 3.74237 10.9455 3.64873 10.8519L0.148614 7.35181C0.0545073 7.25817 0 7.13286 0 7.00008C0 6.72662 0.226415 6.50021 0.499883 6.50021H7.49918C7.77312 6.50021 7.99953 6.72662 7.99953 7.00008C8 7.13286 7.94549 7.25771 7.85185 7.35181Z" fill="black"/>
<path d="M0.499883 4.50025H7.49965C7.77358 4.50025 8 4.27338 8 3.99992C8 3.86714 7.94549 3.74229 7.85185 3.64865L4.35127 0.148611C4.25763 0.0545062 4.13277 0 4 0C3.86723 0 3.74237 0.054972 3.64873 0.149077L0.148614 3.64912C0.0545073 3.74276 0 3.86761 0 4.00038C0 4.27384 0.226415 4.50025 0.499883 4.50025Z" fill="black"/>
</g>
</svg>
